<svg
    xmlns="http://www.w3.org/2000/svg" fill="#FFFFFF" id="Layer_1" data-name="Layer 1" viewBox="0 0 249.39 61.27">
    <defs></defs>
    <path class="cls-1" d="M57.72,52.36h1.61l.94,2.43,1-2.43h1.43L60.86,56.2V59H59.39V56.2Z"></path>
    <path class="cls-1" d="M68.17,55.69c0,2.29-.81,3.43-2.42,3.43a2.07,2.07,0,0,1-1.81-.87,4.46,4.46,0,0,1-.61-2.56c0-2.29.81-3.44,2.42-3.44a2.08,2.08,0,0,1,1.8.86A4.44,4.44,0,0,1,68.17,55.69Zm-1.54,0a5,5,0,0,0-.21-1.8.7.7,0,0,0-.67-.45.7.7,0,0,0-.67.45,5,5,0,0,0-.21,1.8,5,5,0,0,0,.21,1.78.72.72,0,0,0,1.33,0A4.71,4.71,0,0,0,66.63,55.69Z"></path>
    <path class="cls-1" d="M69.81,52.36h1.46v3.8a5.59,5.59,0,0,0,.08,1.13.8.8,0,0,0,.3.48,1,1,0,0,0,.57.16.86.86,0,0,0,.58-.18.77.77,0,0,0,.27-.48,8.63,8.63,0,0,0,.05-1.11v-3.8h1.22v3.75a7.71,7.71,0,0,1-.13,1.67,1.6,1.6,0,0,1-.66.95,2.4,2.4,0,0,1-1.45.39,2.66,2.66,0,0,1-1.37-.29A1.6,1.6,0,0,1,70,58a5.63,5.63,0,0,1-.21-1.86Z"></path>
    <path class="cls-1" d="M76.22,52.36h2.1a5.72,5.72,0,0,1,.93,0,1.62,1.62,0,0,1,.66.3,1.72,1.72,0,0,1,.52.68,2.42,2.42,0,0,1,.19,1,1.85,1.85,0,0,1-.94,1.76L80.9,59H79.31l-.89-2.64h-.73V59H76.22Zm1.47,1.07V55.3h.64c.57,0,.86-.32.86-1a1,1,0,0,0-.13-.54.67.67,0,0,0-.29-.29,1.26,1.26,0,0,0-.5-.08Z"></path>
    <path class="cls-1" d="M84.77,52.36h1.47v2.69h1.6V52.36h1.47V59H87.84V56.3h-1.6V59H84.77Z"></path>
    <path class="cls-1" d="M92.36,52.36h1.48L95.74,59h-1.5l-.33-1.38H92L91.71,59H90.36Zm1.28,4.14L93,53.77l-.64,2.73Z"></path>
    <path class="cls-1" d="M96.92,52.36h1.46V59H96.92Z"></path>
    <path class="cls-1" d="M100.26,52.36h2.1a5.57,5.57,0,0,1,.93,0,1.62,1.62,0,0,1,.66.3,1.72,1.72,0,0,1,.52.68,2.25,2.25,0,0,1,.19,1,1.83,1.83,0,0,1-.94,1.76L105,59h-1.6l-.89-2.64h-.73V59h-1.47Zm1.47,1.07V55.3h.64c.58,0,.86-.32.86-1a1,1,0,0,0-.13-.54.67.67,0,0,0-.29-.29,1.26,1.26,0,0,0-.5-.08Z"></path>
    <path class="cls-1" d="M108.82,52.36h1.46V59h-1.46Z"></path>
    <path class="cls-1" d="M112.11,52.36h1.62l1.72,4.14V52.36h1.13V59h-1.31l-2-4.82V59h-1.13Z"></path>
    <path class="cls-1" d="M123.23,55.47h2.31V59h-.62l-.19-.76a1.79,1.79,0,0,1-1.61.86,2.16,2.16,0,0,1-1.81-.89,4,4,0,0,1-.66-2.41,4.62,4.62,0,0,1,.65-2.61,2.21,2.21,0,0,1,2-1c1.36,0,2.12.76,2.29,2.29l-1.32.21c-.09-.87-.41-1.31-1-1.31a.89.89,0,0,0-.78.49,3.81,3.81,0,0,0-.3,1.83,3.52,3.52,0,0,0,.29,1.68.91.91,0,0,0,.84.49q.9,0,.9-1.32h-1Z"></path>
    <path class="cls-1" d="M131.9,55.69c0,2.29-.8,3.43-2.41,3.43a2.08,2.08,0,0,1-1.82-.87,4.54,4.54,0,0,1-.61-2.56c0-2.29.81-3.44,2.42-3.44a2.08,2.08,0,0,1,1.8.86A4.37,4.37,0,0,1,131.9,55.69Zm-1.54,0a5,5,0,0,0-.21-1.8.72.72,0,0,0-1.33,0,5,5,0,0,0-.21,1.8,5.33,5.33,0,0,0,.2,1.78.7.7,0,0,0,.67.46.71.71,0,0,0,.67-.44A5,5,0,0,0,130.36,55.69Z"></path>
    <path class="cls-1" d="M138.14,55.69c0,2.29-.8,3.43-2.41,3.43a2.09,2.09,0,0,1-1.82-.87,4.54,4.54,0,0,1-.61-2.56c0-2.29.81-3.44,2.42-3.44a2.08,2.08,0,0,1,1.8.86A4.37,4.37,0,0,1,138.14,55.69Zm-1.54,0a5,5,0,0,0-.21-1.8.72.72,0,0,0-1.33,0,5,5,0,0,0-.21,1.8,5.33,5.33,0,0,0,.2,1.78.7.7,0,0,0,.67.46.71.71,0,0,0,.67-.44A5,5,0,0,0,136.6,55.69Z"></path>
    <path class="cls-1" d="M139.78,52.36h1.58a4.38,4.38,0,0,1,1.67.27,2.12,2.12,0,0,1,1,1,4.47,4.47,0,0,1,.38,2,5.17,5.17,0,0,1-.23,1.59,3,3,0,0,1-.62,1.1,1.91,1.91,0,0,1-.86.53,4.41,4.41,0,0,1-1.19.14h-1.76Zm1.47,1.14v4.38h.25a1.38,1.38,0,0,0,.79-.2,1.32,1.32,0,0,0,.44-.68,4.56,4.56,0,0,0,.17-1.41,3.68,3.68,0,0,0-.18-1.3,1.29,1.29,0,0,0-.46-.63,1.51,1.51,0,0,0-.76-.16Z"></path>
    <path class="cls-1" d="M148.51,52.36H150v2.69h1.61V52.36H153V59h-1.46V56.3H150V59h-1.46Z"></path>
    <path class="cls-1" d="M156.1,52.36h1.47L159.48,59H158l-.34-1.38h-1.87L155.44,59H154.1Zm1.27,4.14-.67-2.73-.65,2.73Z"></path>
    <path class="cls-1" d="M160.6,52.36h1.63l1.71,4.14V52.36h1.13V59h-1.31l-2-4.82V59H160.6Z"></path>
    <path class="cls-1" d="M166.89,52.36h1.58a4.38,4.38,0,0,1,1.67.27,2.1,2.1,0,0,1,1,1,4.32,4.32,0,0,1,.39,2,5.17,5.17,0,0,1-.23,1.59,3.11,3.11,0,0,1-.62,1.1,1.91,1.91,0,0,1-.86.53,4.49,4.49,0,0,1-1.2.14h-1.75Zm1.47,1.14v4.38h.25a1.32,1.32,0,0,0,.78-.2,1.27,1.27,0,0,0,.45-.68,4.56,4.56,0,0,0,.17-1.41,3.43,3.43,0,0,0-.19-1.3,1.18,1.18,0,0,0-.46-.63,1.44,1.44,0,0,0-.75-.16Z"></path>
    <path class="cls-1" d="M177.21,53.81l-1.21.46c-.17-.55-.49-.83-.95-.83a.73.73,0,0,0-.51.19.58.58,0,0,0,0,.88,4.45,4.45,0,0,0,.94.44,6.54,6.54,0,0,1,1,.47,1.82,1.82,0,0,1,.59.64,1.78,1.78,0,0,1,.23.93,2,2,0,0,1-.64,1.53,2.42,2.42,0,0,1-1.72.6,2.22,2.22,0,0,1-2.32-1.83l1.28-.36c.16.67.52,1,1.07,1a.89.89,0,0,0,.62-.2.63.63,0,0,0,.24-.52.65.65,0,0,0-.17-.43,1.86,1.86,0,0,0-.76-.41,6.57,6.57,0,0,1-1.14-.5,1.7,1.7,0,0,1-.62-.63,1.76,1.76,0,0,1-.25-.94,2,2,0,0,1,.58-1.47,2.07,2.07,0,0,1,1.53-.58A2,2,0,0,1,177.21,53.81Z"></path>
    <path class="cls-1" d="M47.32,5.59l.08.2a1.85,1.85,0,0,1,0-.23Z"></path>
    <path class="cls-1" d="M95,59.07h.11L95,59A.08.08,0,0,1,95,59.07Z"></path>
    <path class="cls-1" d="M50.68,15.89a9.68,9.68,0,0,0,3-3.25,8.31,8.31,0,0,0,1-3.86A7.14,7.14,0,0,0,53.81,5a7.59,7.59,0,0,0-2.93-2.82A9.89,9.89,0,0,0,46,1.11a20.39,20.39,0,0,0-5.19.64A17.86,17.86,0,0,0,36.3,3.59a15.22,15.22,0,0,0-3.55,2.86,13.45,13.45,0,0,0-2.44,3.69,22.35,22.35,0,0,1-3.94-.2l-4.74-.61c-1.67-.2-3.37-.36-5.1-.47a26.65,26.65,0,0,0-5,.16A15.49,15.49,0,0,0,7,10.3a8.82,8.82,0,0,0-3.51,2.93,7.76,7.76,0,0,0-1.41,3.19,9.05,9.05,0,0,0,0,3.2,10.54,10.54,0,0,0,1,3,12.56,12.56,0,0,0,1.72,2.5,9.81,9.81,0,0,0,2.06,1.77,4.79,4.79,0,0,0,2,.76l2-1a4.93,4.93,0,0,1-1.83-1.85A6.52,6.52,0,0,1,8.26,22a7.51,7.51,0,0,1,.43-3.16,7.68,7.68,0,0,1,2-3,12.86,12.86,0,0,1,3.91-2.54A19.16,19.16,0,0,1,19.28,12a25.35,25.35,0,0,1,5.1-.27,38.56,38.56,0,0,1,5.17.56,12.77,12.77,0,0,0-.31,4.92,17.36,17.36,0,0,0,1.61,5.36,22.54,22.54,0,0,1,1.9,6.08,17.06,17.06,0,0,1,0,5.44,12.8,12.8,0,0,1-1.67,4.54A11.79,11.79,0,0,1,28,42a11.58,11.58,0,0,1-4.12,1.93,12.87,12.87,0,0,1-4.9.22,9.28,9.28,0,0,1-3.62-1.25A8,8,0,0,1,13,40.64a6.92,6.92,0,0,1-1.11-2.8,7.81,7.81,0,0,1,.06-3,7.27,7.27,0,0,1,1.21-2.73,7,7,0,0,1,2.37-2.05,3.15,3.15,0,0,0,.27,2.28,2,2,0,0,0,1.83.89,5.45,5.45,0,0,0,2.55-.6,6.63,6.63,0,0,0,2-1.55,6.44,6.44,0,0,0,1.23-2,4.34,4.34,0,0,0,.31-2A2.26,2.26,0,0,0,23,25.59a3,3,0,0,0-2-.6,10.55,10.55,0,0,0-5.39,1.41,12.82,12.82,0,0,0-4,3.6,13.08,13.08,0,0,0-2.19,4.8,9.74,9.74,0,0,0,.11,5,8.89,8.89,0,0,0,2.93,4.25,12.51,12.51,0,0,0,6.24,2.48,21.08,21.08,0,0,0,7.31,0,19,19,0,0,0,6.26-2.3,16.83,16.83,0,0,0,4.75-4.16,16.35,16.35,0,0,0,2.81-5.55A16.75,16.75,0,0,0,40.21,28,19.73,19.73,0,0,0,38,20.92a17,17,0,0,1-1.86-5.28,12.38,12.38,0,0,1,.07-4.52c.56-.15,1.1-.3,1.61-.47s1-.32,1.38-.47l1.3-.4a6.34,6.34,0,0,0-1.74,3A3.76,3.76,0,0,0,39,15.55a4.42,4.42,0,0,0,2.35,1.88,8.55,8.55,0,0,0,4.4.27A11,11,0,0,0,50.68,15.89Zm-8.21-.72a2.13,2.13,0,0,1-1.18-1.36,3.42,3.42,0,0,1,.09-2,7,7,0,0,1,1.09-2.11A7.73,7.73,0,0,1,44.33,8a5.13,5.13,0,0,1,2.3-.87l-.76-2c-.74.42-1.58.84-2.5,1.25s-1.72.76-2.82,1.19S38.25,8.41,37,8.8a9.4,9.4,0,0,1,1.59-2.39,10.28,10.28,0,0,1,2.1-1.77A10.16,10.16,0,0,1,43,3.54a8.32,8.32,0,0,1,2.44-.38A7.52,7.52,0,0,1,49.18,4a5.3,5.3,0,0,1,2.17,2.1A5.28,5.28,0,0,1,52,8.86a6.46,6.46,0,0,1-.83,2.87,7.19,7.19,0,0,1-2.26,2.39,8.07,8.07,0,0,1-3.64,1.3A5.06,5.06,0,0,1,42.47,15.17Z"></path>
    <path class="cls-1" d="M46.1,26.91a8.81,8.81,0,0,0-.67,3.47,5.77,5.77,0,0,0,.76,2.84,5,5,0,0,0,2,1.9,6.84,6.84,0,0,0,3.2.69,14.24,14.24,0,0,0,6.37-1.34,9.65,9.65,0,0,0,2.09-1.4,2.74,2.74,0,0,0,.35,1.31,3.25,3.25,0,0,0,3,1.43,6.2,6.2,0,0,0,2.17-.4,9,9,0,0,0,2.06-1.08,9.15,9.15,0,0,0,1.7-1.54,5.4,5.4,0,0,0,.15.72,3.3,3.3,0,0,0,1.14,1.65,3.59,3.59,0,0,0,2.26.65,13.8,13.8,0,0,0,3.36-.4,9.65,9.65,0,0,0,3-1.32,9.26,9.26,0,0,0,2.46-2.42,12.54,12.54,0,0,0,1.75-3.73,6.58,6.58,0,0,0,.24-3,4.3,4.3,0,0,0-1-2.15,4.12,4.12,0,0,0-2-1.16,5.66,5.66,0,0,0-2.6-.07,2.5,2.5,0,0,0,.85-.91,10.84,10.84,0,0,0,.54-1,3.57,3.57,0,0,0,.16-2.48,1.6,1.6,0,0,0-1.68-1,3.76,3.76,0,0,0-2.44.9,6.09,6.09,0,0,0-1.76,2.59A3.69,3.69,0,0,0,73.4,21a3.14,3.14,0,0,0,.25,1.16,1.56,1.56,0,0,0,.67.74,1.42,1.42,0,0,0,1.07.07c1.7-.51,2.81-.35,3.33.49s.38,2.32-.42,4.47a13.72,13.72,0,0,1-1.08,2.32,10.64,10.64,0,0,1-1.34,1.88,5.62,5.62,0,0,1-1.54,1.26,3.57,3.57,0,0,1-1.68.44,1.4,1.4,0,0,1-1.27-.58,2.18,2.18,0,0,1-.29-1.47,2.4,2.4,0,0,0,.58.08A3.75,3.75,0,0,0,74.12,31a6.2,6.2,0,0,0,1.76-2.55A3.34,3.34,0,0,0,76,26a1.6,1.6,0,0,0-1.66-1,2.81,2.81,0,0,0-.8.15,3.9,3.9,0,0,0-1.08.59,7.12,7.12,0,0,0-1.2,1.16,10,10,0,0,0-1.21,1.85,7.37,7.37,0,0,0-.38.81,5,5,0,0,1-1.45,1.83,4.22,4.22,0,0,1-1.68.83,1.45,1.45,0,0,1-1.23-.2c-.3-.24-.33-.66-.09-1.25L66.36,28c.32-.77.65-1.55,1-2.32l.74-1.84c.8-2,1-3.42.58-4.36s-1.48-1.4-3.18-1.4a8.19,8.19,0,0,0-.87,0,5.76,5.76,0,0,0-.78.13l-.76.18-.94,1.93h.45c.68,0,1.11.18,1.29.56a1.79,1.79,0,0,1-.09,1.45c-.15.33-.36.85-.65,1.56s-.58,1.48-.91,2.28-.65,1.58-1,2.31l-.51,1.18A7.8,7.8,0,0,1,59.6,31a9.26,9.26,0,0,1-1.67,1.21A10.27,10.27,0,0,1,56,33a6.5,6.5,0,0,1-1.94.32,3.39,3.39,0,0,1-3.27-1.57c-.56-1-.44-2.64.36-4.78a18.17,18.17,0,0,1,1.1-2.49,14.24,14.24,0,0,1,1.43-2.21,8.52,8.52,0,0,1,1.63-1.61A2.91,2.91,0,0,1,57.05,20a1.43,1.43,0,0,1,1.28.58,2.14,2.14,0,0,1,.25,1.48.6.6,0,0,0-.25,0H58a3.73,3.73,0,0,0-2.44.89,6.31,6.31,0,0,0-1.77,2.55,3.37,3.37,0,0,0-.15,2.41,1.56,1.56,0,0,0,1.63,1,2.82,2.82,0,0,0,.83-.16,3.63,3.63,0,0,0,1.09-.58A7.36,7.36,0,0,0,58.44,27a9.51,9.51,0,0,0,1.21-1.83,8.3,8.3,0,0,0,.83-2.49,5.14,5.14,0,0,0-.12-2.3A3.23,3.23,0,0,0,59.2,18.7a3.69,3.69,0,0,0-2.28-.64,9.78,9.78,0,0,0-6.26,2.25A15.77,15.77,0,0,0,46.1,26.91Z"></path>
    <path class="cls-1" d="M87.19,31.82a3.74,3.74,0,0,0,2.43-.9,6.2,6.2,0,0,0,1.77-2.54,3.33,3.33,0,0,0,.13-2.44,1.6,1.6,0,0,0-1.65-1,2.66,2.66,0,0,0-.81.16,3.94,3.94,0,0,0-1.07.58,7.14,7.14,0,0,0-1.21,1.16,9.35,9.35,0,0,0-1.2,1.86,7,7,0,0,0-.85,2.48,5.17,5.17,0,0,0,.13,2.28A3.37,3.37,0,0,0,86,35.11a3.57,3.57,0,0,0,2.26.64,13.66,13.66,0,0,0,3.35-.4,9.71,9.71,0,0,0,3-1.32,9.52,9.52,0,0,0,2.46-2.41,12.6,12.6,0,0,0,1.74-3.74,6.6,6.6,0,0,0,.25-3,4.28,4.28,0,0,0-1-2.14,4,4,0,0,0-2-1.16,5.54,5.54,0,0,0-2.6-.07,2.71,2.71,0,0,0,.85-.92,9.7,9.7,0,0,0,.54-1A3.51,3.51,0,0,0,95,17.08a1.58,1.58,0,0,0-1.67-1,3.79,3.79,0,0,0-2.44.89,6.26,6.26,0,0,0-1.77,2.59A3.49,3.49,0,0,0,88.91,21a2.88,2.88,0,0,0,.24,1.16,1.56,1.56,0,0,0,.67.74,1.36,1.36,0,0,0,1.08.07c1.7-.51,2.81-.34,3.33.49s.38,2.33-.43,4.47a13.05,13.05,0,0,1-1.07,2.33,12.06,12.06,0,0,1-1.34,1.88,5.92,5.92,0,0,1-1.54,1.25,3.5,3.5,0,0,1-1.68.45,1.44,1.44,0,0,1-1.28-.58,2.25,2.25,0,0,1-.29-1.48A2.57,2.57,0,0,0,87.19,31.82Z"></path>
    <path class="cls-1" d="M114.92,18.75a5,5,0,0,0-2.7-.69,9.62,9.62,0,0,0-6.29,2.3,15.91,15.91,0,0,0-4.49,6.55,11.87,11.87,0,0,0-.83,3.47,6.37,6.37,0,0,0,.38,2.84,4,4,0,0,0,1.57,1.9,4.94,4.94,0,0,0,2.73.69,9.2,9.2,0,0,0,3.28-.6,10.72,10.72,0,0,0,3-1.77,14.76,14.76,0,0,0,2.57-2.8,16.45,16.45,0,0,0,2-3.73,11.13,11.13,0,0,0,.8-3.44,6.41,6.41,0,0,0-.4-2.82A4,4,0,0,0,114.92,18.75Zm-2.52,3.39a12.9,12.9,0,0,1-.43,2.21A24.43,24.43,0,0,1,111.1,27a24,24,0,0,1-1.21,2.56,20.4,20.4,0,0,1-1.34,2.16,8.84,8.84,0,0,1-1.32,1.5,1.9,1.9,0,0,1-1.18.55.76.76,0,0,1-.76-.55,3.37,3.37,0,0,1-.16-1.5,10.17,10.17,0,0,1,.42-2.16c.24-.82.54-1.67.9-2.56a23.42,23.42,0,0,1,1.21-2.63A19.23,19.23,0,0,1,109,22.14a9.33,9.33,0,0,1,1.36-1.54,2,2,0,0,1,1.21-.58.72.72,0,0,1,.72.58A4.07,4.07,0,0,1,112.4,22.14Z"></path>
    <path class="cls-1" d="M59.7,9.8a2.55,2.55,0,0,0-.75.25,1.5,1.5,0,0,0-.56.47,1.48,1.48,0,0,0-.38.74c0,.2,0,.33.14.39a.56.56,0,0,0,.46,0,1.48,1.48,0,0,0,.6-.45,2.46,2.46,0,0,1,.78-.57,4.48,4.48,0,0,1,1-.31,5.07,5.07,0,0,1,1-.1,9.33,9.33,0,0,1,.94,0,16.21,16.21,0,0,0,2,.34c.66.06,1.3.14,1.93.22a17.7,17.7,0,0,1,1.78.32l.1,0a2.71,2.71,0,0,0-1.07.65,2.72,2.72,0,0,0,0,3.85,2.69,2.69,0,0,0,2,.81,2.59,2.59,0,0,0,1.92-.81,2.69,2.69,0,0,0,0-3.85l0,0a5.13,5.13,0,0,0-1.16-1,6,6,0,0,0-1.53-.68c-.58-.17-1.19-.32-1.84-.45-.48-.17-1-.37-1.56-.6a16.24,16.24,0,0,1-1.63-.78,8.48,8.48,0,0,1-1.41-.95,3.44,3.44,0,0,1-.92-1.1,2.29,2.29,0,0,0,.36.89,4.28,4.28,0,0,0,.66.77,6.53,6.53,0,0,0,.91.68,9.35,9.35,0,0,0,1,.55,10.26,10.26,0,0,1-2.39-.88A3.87,3.87,0,0,1,60.4,6.6a2.83,2.83,0,0,1-.34-1.2,2.5,2.5,0,0,1,.18-1.11,1.86,1.86,0,0,1,.66-.81A1.8,1.8,0,0,1,62,3.19a3.76,3.76,0,0,1,1.46.43A7.69,7.69,0,0,1,65.23,5a6.09,6.09,0,0,0-1.76-1.69,4.8,4.8,0,0,0-1.88-.71,3.55,3.55,0,0,0-1.7.17,2.59,2.59,0,0,0-1.23.91,2.76,2.76,0,0,0-.46,1.55,4.45,4.45,0,0,0,.59,2.05A5.56,5.56,0,0,0,60,8.77a5.7,5.7,0,0,0,1.47,1,8.42,8.42,0,0,0-.87,0A4.71,4.71,0,0,0,59.7,9.8Z"></path>
    <path class="cls-1" d="M63.16,10.37c.09.05.14.06.14.05S63.26,10.39,63.16,10.37Z"></path>
    <path class="cls-1" d="M84.81,17.29a5.14,5.14,0,0,0,2,.23,4.61,4.61,0,0,0,2.1-.68,4.46,4.46,0,0,1-2.5.3,1.47,1.47,0,0,1-1.21-.91,1.69,1.69,0,0,1,.52-1.55,6.09,6.09,0,0,1,2.72-1.54,9.27,9.27,0,0,1,3.12-.51,30.52,30.52,0,0,1,3.8.23c-.7,0-1.41,0-2.13.08a12.83,12.83,0,0,0-2,.3,6.75,6.75,0,0,0-1.69.64A2.63,2.63,0,0,0,88.42,15a3.64,3.64,0,0,1,1.35-.88,9,9,0,0,1,1.84-.52,17.44,17.44,0,0,1,2.11-.24q1.09-.06,2.13,0c.68,0,1.33.05,1.94.09s1.13.09,1.57.15q2.44.48,5,1.05c1.66.37,3.26.7,4.8,1s3,.48,4.31.6a10.85,10.85,0,0,0,3.46-.2,8.24,8.24,0,0,0,2.76-1.13,4.3,4.3,0,0,0,1.3-1.35,2.54,2.54,0,0,0,.37-1.27,4.55,4.55,0,0,0-.09-.9,3.26,3.26,0,0,1-.8,2A4.63,4.63,0,0,1,119,14.38a8.09,8.09,0,0,1-2.5.79,10.6,10.6,0,0,1-2.14.09,19.2,19.2,0,0,1-2.45-.3,12.63,12.63,0,0,0,3-.26,6.48,6.48,0,0,0,2.77-1.29,1.09,1.09,0,0,0,.43-.58.33.33,0,0,0-.14-.36.75.75,0,0,0-.54-.06,1.55,1.55,0,0,0-.71.36c-.32.26-.67.53-1.06.79a5.67,5.67,0,0,1-1.44.67,8.94,8.94,0,0,1-2,.36,13,13,0,0,1-2.82-.15q-2.56-.6-5.41-1.43t-5.7-1.38A34.53,34.53,0,0,0,92.69,11a14.82,14.82,0,0,0-5.24.74,10.47,10.47,0,0,0-3.28,1.61A3.13,3.13,0,0,0,83,15a1.52,1.52,0,0,0,.38,1.4A3.3,3.3,0,0,0,84.81,17.29Z"></path>
    <path class="cls-1" d="M121.16,11s0,.09.06.27a.61.61,0,0,0,0-.22C121.17,11,121.16,11,121.16,11Z"></path>
    <path class="cls-1" d="M225.79,21.27a2.83,2.83,0,0,0-2.44-1.16,9,9,0,0,0-5.48,2,15,15,0,0,0-4.44,6.2,10.53,10.53,0,0,0-.89,3.2,6.24,6.24,0,0,0,.23,2.62A3.46,3.46,0,0,0,214,35.88a3.81,3.81,0,0,0,2.29.64,5.63,5.63,0,0,0,2.36-.56,10.59,10.59,0,0,0,2.44-1.55,2.3,2.3,0,0,0,1,1.6,3.72,3.72,0,0,0,2.06.51,5.75,5.75,0,0,0,2-.37,8.35,8.35,0,0,0,3.51-2.46,7.05,7.05,0,0,0,1.14-1.84l-.7-1.16a4.6,4.6,0,0,1-1.37,1.74,4.07,4.07,0,0,1-1.55.77A1.28,1.28,0,0,1,226.1,33c-.27-.22-.3-.61-.11-1.16L231.28,19c.77-1.85,1-3.2.56-4.05s-1.38-1.28-3-1.28a7.09,7.09,0,0,0-.81,0,6.75,6.75,0,0,0-.72.12,7.2,7.2,0,0,1-.71.13l-.82,1.77h.41c.61,0,1,.17,1.18.52a1.52,1.52,0,0,1-.11,1.34ZM224,25.59c-.37.92-.72,1.77-1.05,2.54s-.62,1.44-.85,2-.39.94-.48,1.13l-.22.58c-.07.17-.13.35-.19.54a8.64,8.64,0,0,1-1.61,1.11,3.19,3.19,0,0,1-1.49.42,1.11,1.11,0,0,1-1-.46,1.93,1.93,0,0,1-.27-1.24,7.51,7.51,0,0,1,.39-1.84,21.64,21.64,0,0,1,.93-2.25,18.7,18.7,0,0,1,2.89-4.52,3.9,3.9,0,0,1,2.82-1.3,1.51,1.51,0,0,1,1.24.57Z"></path>
    <path class="cls-1" d="M243.06,24.47a3.86,3.86,0,0,0-1.82-1.07,5,5,0,0,0-2.39-.06,2.48,2.48,0,0,0,.78-.85,9.17,9.17,0,0,0,.5-.93,3.25,3.25,0,0,0,.14-2.29,1.47,1.47,0,0,0-1.55-.93,3.47,3.47,0,0,0-2.25.82,5.7,5.7,0,0,0-1.63,2.4,3.31,3.31,0,0,0-.23,1.28,2.73,2.73,0,0,0,.23,1.08,1.37,1.37,0,0,0,.62.68,1.27,1.27,0,0,0,1,.06c1.57-.47,2.6-.32,3.08.46s.35,2.14-.4,4.13a12.07,12.07,0,0,1-1,2.15,10.23,10.23,0,0,1-1.24,1.73,5.07,5.07,0,0,1-1.42,1.16,3.18,3.18,0,0,1-1.55.41,1.31,1.31,0,0,1-1.18-.53,2.14,2.14,0,0,1-.27-1.37,2.06,2.06,0,0,0,.54.08,3.47,3.47,0,0,0,2.25-.82,5.68,5.68,0,0,0,1.63-2.36,3.08,3.08,0,0,0,.13-2.25,1.48,1.48,0,0,0-1.53-.93,2.58,2.58,0,0,0-.75.15,3.45,3.45,0,0,0-1,.53,6.17,6.17,0,0,0-1.11,1.08A8.88,8.88,0,0,0,231.53,30a6.67,6.67,0,0,0-.78,2.3,4.82,4.82,0,0,0,.12,2.1,3,3,0,0,0,1,1.53,3.31,3.31,0,0,0,2.09.6,12.65,12.65,0,0,0,3.1-.37,8.91,8.91,0,0,0,2.77-1.22,8.72,8.72,0,0,0,2.27-2.23,11.51,11.51,0,0,0,1.61-3.45,6,6,0,0,0,.23-2.79A3.93,3.93,0,0,0,243.06,24.47Z"></path>
    <path class="cls-1" d="M180.81,14.36,185.89,6h-5.74l-6.24,9.09L171.26,19q-1.37,2-2.66,4t-2.48,3.76c-.79,1.2-1.47,2.28-2.05,3.24a22.8,22.8,0,0,0-7.52-2.89c.74-1.46,1.47-2.9,2.17-4.32s1.41-2.79,2.13-4.11,1.43-2.56,2.15-3.72a27.14,27.14,0,0,1,2.19-3.1,14.81,14.81,0,0,0,3.59-.93,10.07,10.07,0,0,0,2.5-1.39A3.35,3.35,0,0,0,172.46,8a1.2,1.2,0,0,0-.33-1.33,2.43,2.43,0,0,0-1.2-.59A5,5,0,0,0,169.49,6a9,9,0,0,0-1.47.25l-1.3.35a14.58,14.58,0,0,0-3.12,1.53,22.31,22.31,0,0,0-2.88,2.23,25.74,25.74,0,0,1-3.53.31c-1.36,0-2.8.1-4.32.17s-3.06.18-4.63.35a22.82,22.82,0,0,0-4.44.89,13.87,13.87,0,0,0-3.72,1.75,7.36,7.36,0,0,0-2.5,2.94,7.5,7.5,0,0,0-.79,3.59,8.41,8.41,0,0,0,.83,3.29,8.65,8.65,0,0,0,2,2.64,9.32,9.32,0,0,0,2.79,1.76,21.36,21.36,0,0,0-5.67,3.2,20.68,20.68,0,0,0-4,4.2A15,15,0,0,0,130.53,40a8.13,8.13,0,0,0-.22,4,5,5,0,0,0,1.9,2.94,6.71,6.71,0,0,0,4.13,1.13,11.36,11.36,0,0,0,5.95-1.63,21.57,21.57,0,0,0,5.08-4.3A38.1,38.1,0,0,0,151.76,36c1.35-2.3,2.64-4.67,3.88-7.09a19.2,19.2,0,0,1,7.32,3,18.74,18.74,0,0,0-2,5.25,6.39,6.39,0,0,0,.19,3.58,3.73,3.73,0,0,0,1.94,2,7.58,7.58,0,0,0,3.26.64,6.25,6.25,0,0,0,2.46-.49A7.79,7.79,0,0,0,171,41.57a9.67,9.67,0,0,0,2.87-4.36l-1.07-1.57a6.16,6.16,0,0,1-.83,1.47,6,6,0,0,1-1,1.08,4.34,4.34,0,0,1-1.14.64,3.15,3.15,0,0,1-1,.2,1.49,1.49,0,0,1-1.05-.41,1.15,1.15,0,0,1-.27-1.16,8.26,8.26,0,0,1,.7-1.94c.36-.74.79-1.56,1.3-2.44s1.07-1.8,1.68-2.77l1.82-2.93,1.63-2.71c.62-1,1.28-2.12,2-3.26s1.42-2.32,2.15-3.54ZM145,35.15a55.09,55.09,0,0,1-3.25,5.39,18.62,18.62,0,0,1-3.24,3.72,5.18,5.18,0,0,1-3.37,1.38A2.19,2.19,0,0,1,133,44.51a4.65,4.65,0,0,1-.35-2.85,11.34,11.34,0,0,1,1.39-3.78,16.21,16.21,0,0,1,3.1-4,19.74,19.74,0,0,1,4.77-3.31,18.91,18.91,0,0,1,6.45-1.84Q146.63,32.1,145,35.15ZM153.86,19c-1.51,2.45-3,5-4.3,7.52a22.1,22.1,0,0,0-4.13.62,5,5,0,0,1-1.63-1.36,5.17,5.17,0,0,1-1-2,6.67,6.67,0,0,1-.1-2.42,7.08,7.08,0,0,1,.95-2.66,7.93,7.93,0,0,1,2.7-2.77,17.66,17.66,0,0,1,3.87-1.82A31,31,0,0,1,154.61,13c1.48-.28,2.86-.49,4.13-.62A47.54,47.54,0,0,0,153.86,19Z"></path>
    <path class="cls-1" d="M242.52,37.61a1,1,0,0,0-.77-.07,1.54,1.54,0,0,0-.87.67,2.93,2.93,0,0,1-1.53,1,8.17,8.17,0,0,1-2.17.32,16.08,16.08,0,0,1-2.39-.12c-.81-.1-1.55-.2-2.21-.32s-1.21-.22-1.62-.32l-.56-.14-.25-.06-.6-.13-.58-.11q-.24,0-.18,0l.6.2c.36.11,1,.28,1.79.5,1.25.34,2.48.63,3.68.85a21.14,21.14,0,0,0,3.34.4,10.05,10.05,0,0,0,2.73-.26,3.17,3.17,0,0,0,1.83-1.16.74.74,0,0,0,.17-.69A.77.77,0,0,0,242.52,37.61Z"></path>
    <path class="cls-1" d="M232.9,41.89A20.77,20.77,0,0,0,227,40a42.47,42.47,0,0,0-9.72-.52l-3.76.22-1.82.14a6.26,6.26,0,0,1-.24-6.44,6.61,6.61,0,0,0,.88-1.52l-.7-1.16a4.58,4.58,0,0,1-1.36,1.74,3.7,3.7,0,0,1-1.55.74,1.37,1.37,0,0,1-1.14-.2c-.27-.22-.3-.59-.08-1.12.11-.25.28-.66.51-1.24s.49-1.2.77-1.86.54-1.3.79-1.92.44-1.11.57-1.47c.72-1.73.82-3,.29-3.92a3,3,0,0,0-2.81-1.33,6,6,0,0,0-2.39.52A7.8,7.8,0,0,0,203,22.06c-.2-1.3-1.23-1.95-3.1-1.95a7,7,0,0,0-.81.05,4.91,4.91,0,0,0-.72.12l-.71.17-.82,1.77h.41c.63,0,1,.17,1.2.52a1.63,1.63,0,0,1-.12,1.34l-2.94,7.15v0l-.37-.62a4.46,4.46,0,0,1-1.39,1.74,3.81,3.81,0,0,1-1.55.74,1.33,1.33,0,0,1-1.12-.2c-.27-.22-.3-.6-.08-1.12.06-.16.2-.53.44-1.1s.51-1.23.82-2l1-2.46c.35-.87.7-1.69,1-2.48l.87-2.08c.24-.61.41-1,.49-1.29H191a.69.69,0,0,0-.15.31,3.6,3.6,0,0,1-.18.52,2.83,2.83,0,0,0-2.44-1.16,9,9,0,0,0-5.5,2,14.6,14.6,0,0,0-4.42,6.2,10.45,10.45,0,0,0-.89,3.2,6.25,6.25,0,0,0,.23,2.62,3.46,3.46,0,0,0,1.26,1.76,3.81,3.81,0,0,0,2.29.64,5.41,5.41,0,0,0,2.34-.58A11.52,11.52,0,0,0,186,34.32a2.36,2.36,0,0,0,1,1.61,3.65,3.65,0,0,0,2.08.54,5.75,5.75,0,0,0,2-.37,8.59,8.59,0,0,0,1.9-1,9,9,0,0,0,1.61-1.47l.16-.2a3.22,3.22,0,0,0,.14,1.8c.4.85,1.39,1.28,3,1.28a8.18,8.18,0,0,0,1.53-.12l.7-.17.83-1.77h-.42c-.63,0-1-.17-1.19-.5a1.69,1.69,0,0,1,.08-1.36c.08-.22.25-.64.52-1.24s.53-1.28.82-2,.59-1.45.89-2.17.54-1.29.7-1.73a3.52,3.52,0,0,0,.15-.42c0-.13.09-.27.14-.41a4,4,0,0,1,1.3-.89,3,3,0,0,1,1.18-.25.89.89,0,0,1,.73.37,1.06,1.06,0,0,1,0,1l-2.68,6.44a6.76,6.76,0,0,0-.58,2.28,3,3,0,0,0,.33,1.65,2.31,2.31,0,0,0,1.1,1,4.08,4.08,0,0,0,1.71.33,5.69,5.69,0,0,0,2-.37,8.22,8.22,0,0,0,1.52-.74,5,5,0,0,0,.51,4.56l-.77.07s-5.64.55-8,.81-4.59.49-6.56.65-3.74.26-5.32.28a29.26,29.26,0,0,1-4.33-.23,17.82,17.82,0,0,1-3.59-.85A15.11,15.11,0,0,1,178,39.14a12.36,12.36,0,0,0,5.2,2.72,29.18,29.18,0,0,0,5.21.86,15.71,15.71,0,0,0-7,5.34c4.72-4.16,12.53-5,15.51-5.21l2.88-.13c3.46-.18,7.28-.4,11.46-.59a23.2,23.2,0,0,0,3.12,1.8,31.67,31.67,0,0,0,3.66,1.44q1.95.63,4,1.11t4.29.78a18.29,18.29,0,0,0,5.28.11,6.51,6.51,0,0,0,3.14-1.15,1.69,1.69,0,0,0,.55-2A5,5,0,0,0,232.9,41.89ZM186.55,31.22a5.75,5.75,0,0,0-.37,1.08,7.49,7.49,0,0,1-1.65,1.15,3.4,3.4,0,0,1-1.53.42,1.11,1.11,0,0,1-1-.46,1.93,1.93,0,0,1-.27-1.24,7.07,7.07,0,0,1,.39-1.84,15.9,15.9,0,0,1,1-2.25,29.33,29.33,0,0,1,1.49-2.73A10.52,10.52,0,0,1,186,23.56a4.77,4.77,0,0,1,1.37-1,3.57,3.57,0,0,1,1.46-.31,1.32,1.32,0,0,1,1.2.58Zm47,14.81a5.18,5.18,0,0,1-1.7.58,13,13,0,0,1-2.45.17,15.61,15.61,0,0,1-2.88-.33c-1-.2-2-.44-3.12-.71s-2.3-.59-3.5-.94-2.38-.76-3.57-1.2A25,25,0,0,1,213,42.06c1.08,0,2.17-.08,3.28-.1l3.41-.08a53.63,53.63,0,0,1,6.81.3A27.69,27.69,0,0,1,231,43a8.28,8.28,0,0,1,2.47,1.07c.5.36.74.71.74,1S234,45.77,233.52,46Z"></path>
    <path class="cls-1" d="M188.06,12.25a1.33,1.33,0,0,0,.89-.09,2.06,2.06,0,0,1,.93-.05,9.57,9.57,0,0,1,1.31.27c.48.13,1,.27,1.48.43l1.45.44A20.08,20.08,0,0,0,198.28,15a27.66,27.66,0,0,0,5.13,1,34.91,34.91,0,0,0,5.9.07,45.23,45.23,0,0,0,6.48-.91c2.37-.5,4.38-1,6.08-1.42s3.16-.74,4.39-1a15,15,0,0,1,3.07-.31,6,6,0,0,1,2,.34,2.76,2.76,0,0,1,1.21.88,4.09,4.09,0,0,1,.29.48,8.58,8.58,0,0,1-.73,4.4l-5.29,12.9c-.19.55-.16.93.1,1.15a1,1,0,0,0,.42.2.89.89,0,0,1,.49-.44,1.34,1.34,0,0,1,.06-.91l5.29-12.9a6.54,6.54,0,0,0,.7-3.58,3.88,3.88,0,0,0-.11-.75,3.11,3.11,0,0,0-2.24-2.24,8.17,8.17,0,0,0-2.39-.29,21.35,21.35,0,0,0-3.47.35c-1.35.23-2.93.57-4.77,1s-4,.86-6.43,1.29a36.69,36.69,0,0,1-3.94.48,32.93,32.93,0,0,1-3.55.07,24.62,24.62,0,0,1-3.54-.55,19,19,0,0,1-2.93-.93,16,16,0,0,1-2.41-1.25,14,14,0,0,1-2-1.55,7.31,7.31,0,0,0,2,2.07A13.81,13.81,0,0,0,200.72,14a18.62,18.62,0,0,1-1.86-.69,16.84,16.84,0,0,1-1.88-1A13.35,13.35,0,0,1,195.25,11a8.33,8.33,0,0,1-1.39-1.47A6.62,6.62,0,0,1,193,7.9a4.84,4.84,0,0,1-.27-1.8,4.9,4.9,0,0,0-.18,1.49A4.45,4.45,0,0,0,192.78,9a5.47,5.47,0,0,0,.67,1.26,8.4,8.4,0,0,0,1,1.12,7.72,7.72,0,0,1-2.22-2.13,5,5,0,0,1-.74-1.69A4.73,4.73,0,0,1,191.33,6a3.28,3.28,0,0,1,.36-1.24A1.84,1.84,0,0,1,192.4,4a1.31,1.31,0,0,1,.94-.14,2.19,2.19,0,0,1,1.1.64,2,2,0,0,0-.95-1,2.79,2.79,0,0,0-1.34-.29,3.28,3.28,0,0,0-1.42.4,2.87,2.87,0,0,0-1.15,1.09,3.47,3.47,0,0,0-.46,1.83,6,6,0,0,0,.74,2.61,9.75,9.75,0,0,0,2.86,3.26l-1.14-.41c-.4-.13-.78-.26-1.16-.37s-.74-.2-1.08-.27a3.52,3.52,0,0,0-.87-.07.82.82,0,0,0-.61.25.47.47,0,0,0-.15.45A.48.48,0,0,0,188.06,12.25Z"></path>
    <path class="cls-1" d="M247,19.23a8,8,0,0,0-.87-2.32,8.36,8.36,0,0,0-1.65-2.09,8.61,8.61,0,0,0-2.24-1.52,9.22,9.22,0,0,0-2.47-.79,13.79,13.79,0,0,0-2.31-.2c-.71,0-1.33,0-1.87,0a2,2,0,0,1-1.23-.36,2.39,2.39,0,0,0,1.27,1.86,5.26,5.26,0,0,0,2.09.4,25.16,25.16,0,0,1,2.62.13,8.35,8.35,0,0,1,2.87.88,7.42,7.42,0,0,1,2.4,2,6.8,6.8,0,0,1,1.25,2.7,7.47,7.47,0,0,1,.13,2.34,3.63,3.63,0,0,1-.22,1.09,1.65,1.65,0,0,0,.2-.58,8.29,8.29,0,0,0,0-3.56Z"></path>
    <path class="cls-1" d="M181.42,48.06l-.26.24S181.29,48.22,181.42,48.06Z"></path>
    <path class="cls-1" d="M129.32,31.68A9.9,9.9,0,0,0,128.19,30h0l-.29-.49a4.91,4.91,0,0,1-1.48,1.88,4,4,0,0,1-1.68.81,1.49,1.49,0,0,1-1.23-.23c-.3-.23-.33-.64-.09-1.2.06-.18.2-.53.43-1.05l.78-1.86,1-2.28c.34-.81.66-1.58,1-2.33s.57-1.4.81-2,.4-1,.49-1.26h-3.94a6.19,6.19,0,0,0,1-1.79,3.19,3.19,0,0,0,.18-2.43,1.65,1.65,0,0,0-1.7-1,3.67,3.67,0,0,0-2.39.9,5.79,5.79,0,0,0-1.73,2.54,3.16,3.16,0,0,0-.22,2.44,1.6,1.6,0,0,0,1.65,1,3.83,3.83,0,0,0,1.7-.4l-.08.2h0l-3.58,8.64a7.19,7.19,0,0,0-.63,2.46,3.4,3.4,0,0,0,.34,1.79,2.38,2.38,0,0,0,1.16,1.07,4.39,4.39,0,0,0,1.85.36,6.2,6.2,0,0,0,2.17-.4,9,9,0,0,0,2.06-1.08,9.31,9.31,0,0,0,1.75-1.58,8.55,8.55,0,0,0,.91-1.34,2.4,2.4,0,0,0,.11.23,4.7,4.7,0,0,1,.39,1.7,4.08,4.08,0,0,1-.42,1.92,4.9,4.9,0,0,1-1.79,1.92,13.7,13.7,0,0,1-3.71,1.64,32.1,32.1,0,0,1-6.17,1.11,82.5,82.5,0,0,1-9.18.33q-5.38,0-12.78-.7-2.9-.27-6.26-.53t-6.93-.48q-3.59-.21-7.23-.33c-2.44-.07-4.82-.09-7.14,0s-4.53.15-6.65.33a47.81,47.81,0,0,0-5.8.8c-.54,0-1.16,0-1.87,0s-1.4-.06-2.09-.13a12.31,12.31,0,0,1-1.88-.36,2.42,2.42,0,0,1-1.23-.71,1.67,1.67,0,0,0-.89-.64.49.49,0,0,0-.51.22.84.84,0,0,0,0,.67,1.13,1.13,0,0,0,.54.69,3.41,3.41,0,0,0,1.1.45,8.91,8.91,0,0,0,1.45.26c.52.06,1.05.1,1.6.11s1.06,0,1.53,0a17.09,17.09,0,0,0-3,1.18,7.07,7.07,0,0,0-2.08,1.55,8.84,8.84,0,0,0-1.91,3,5.75,5.75,0,0,0-.34,2.64,4.23,4.23,0,0,0,.8,2.07,4.29,4.29,0,0,0,1.52,1.29,3.37,3.37,0,0,0,1.82.31A2.64,2.64,0,0,0,51,51a2.88,2.88,0,0,1-1.7.28,1.88,1.88,0,0,1-1.14-.69,2.76,2.76,0,0,1-.52-1.39,5.17,5.17,0,0,1,.13-1.81,7.33,7.33,0,0,1,.82-2,6.92,6.92,0,0,1,1.56-1.8,7.08,7.08,0,0,1,2.27-1,7.84,7.84,0,0,0-2,2.2A6.82,6.82,0,0,0,49.48,48a6.58,6.58,0,0,1,1.09-2.24A9.22,9.22,0,0,1,52.32,44a11.49,11.49,0,0,1,2.19-1.35,20.51,20.51,0,0,1,2.45-1l1.13-.16,1.17-.16a14.07,14.07,0,0,0-2.11,1,11.12,11.12,0,0,0-1.88,1.41,20.9,20.9,0,0,1,2.47-1.21,22.39,22.39,0,0,1,2.73-.91,31.31,31.31,0,0,1,3.1-.64c1.1-.18,2.28-.31,3.55-.4l.71,0,.74,0,1.54,0,1.64,0-.08-.08c1.79-.05,3.61-.09,5.46-.11s3.69,0,5.53,0,3.65.1,5.45.21,3.55.23,5.24.39q8,.78,13.85.88a85.92,85.92,0,0,0,10-.31,34.16,34.16,0,0,0,6.71-1.22,13.74,13.74,0,0,0,4-1.87,5,5,0,0,0,1.84-2.22,4.68,4.68,0,0,0,.28-2.32A6,6,0,0,0,129.32,31.68Z"></path>
    <path class="cls-1" d="M201.78,3.76h4.16V5h-1.37v5.42h-1.46V5h-1.33Z"></path>
    <path class="cls-1" d="M206.93,3.76h2.14l1,4.12,1.06-4.12h2.08v6.67h-1.37V4.85l-1.36,5.58h-1.07l-1.24-5.58v5.58h-1.19Z"></path>
</svg>